Coordinates
version=1
nRows=19
nColumns=63
inDegrees=yes

Units are S.I. units (second, meters, Newtons, ...)
If the header above contains a line with 'inDegrees', this indicates whether rotational values are in degrees (yes) or radians (no).

endheader
time	pelvis_tilt	pelvis_list	pelvis_rotation	pelvis_tx	pelvis_ty	pelvis_tz	hip_flexion_r	hip_adduction_r	hip_rotation_r	knee_angle_r	knee_angle_r_beta	ankle_angle_r	subtalar_angle_r	mtp_angle_r	hip_flexion_l	hip_adduction_l	hip_rotation_l	knee_angle_l	knee_angle_l_beta	ankle_angle_l	subtalar_angle_l	mtp_angle_l	L5_S1_Flex_Ext	L5_S1_Lat_Bending	L5_S1_axial_rotation	L4_L5_Flex_Ext	L4_L5_Lat_Bending	L4_L5_axial_rotation	L3_L4_Flex_Ext	L3_L4_Lat_Bending	L3_L4_axial_rotation	L2_L3_Flex_Ext	L2_L3_Lat_Bending	L2_L3_axial_rotation	L1_L2_Flex_Ext	L1_L2_Lat_Bending	L1_L2_axial_rotation	L1_T12_Flex_Ext	L1_T12_Lat_Bending	L1_T12_axial_rotation	Abs_r3	Abs_r2	Abs_r1	Abs_t1	Abs_t2	neck_flexion	neck_bending	neck_rotation	arm_flex_r	arm_add_r	arm_rot_r	elbow_flex_r	pro_sup_r	wrist_flex_r	wrist_dev_r	arm_flex_l	arm_add_l	arm_rot_l	elbow_flex_l	pro_sup_l	wrist_flex_l	wrist_dev_l
2.116667	0.138639	-1.563287	102.970867	0.218657	0.833823	0.620954	-6.868566	0.704805	10.189300	1.583709	0.027641	22.647646	-15.920331	0.000000	-5.520660	3.042727	11.450207	0.339797	0.005931	29.152607	-9.843546	0.000000	0.056199	0.143063	-0.771293	0.104367	0.190273	-0.819499	0.092329	0.347842	-0.819499	0.064230	0.347842	-0.674881	0.052186	0.291733	-0.626675	0.032112	0.221604	-0.578470	0.401423	1.618352	-4.289699	0.000000	0.000000	7.562226	-9.074864	15.869475	77.917087	-100.225889	83.327390	5.996728	42.983585	-10.888004	7.418660	-82.683959	-79.255308	-19.688502	6.183933	54.289822	-9.298801	1.728569
2.133333	0.175182	-1.516432	103.148508	0.218380	0.833839	0.620682	-6.909610	0.783748	9.890021	1.643589	0.028686	22.739718	-15.792243	0.000000	-5.568735	2.960339	11.603430	0.334046	0.005830	29.119548	-9.760527	0.000000	0.049753	0.144907	-0.797234	0.092397	0.192727	-0.847061	0.081740	0.352328	-0.847061	0.056863	0.352328	-0.697580	0.046201	0.295495	-0.647753	0.028429	0.224461	-0.597926	0.355384	1.639220	-4.433978	0.000000	0.000000	7.752653	-9.078227	15.512518	78.228198	-100.180251	82.473557	5.960015	43.823755	-10.943092	7.325578	-82.865308	-79.262196	-19.950204	6.201950	52.930937	-9.261797	1.351365
2.150000	0.199923	-1.470200	103.333424	0.218127	0.833834	0.620390	-6.953235	0.855714	9.517867	1.704043	0.029741	22.879418	-15.617022	0.000000	-5.609436	2.892477	11.732207	0.349403	0.006098	29.096959	-9.683626	0.000000	0.044405	0.144868	-0.825153	0.082464	0.192675	-0.876725	0.072952	0.352232	-0.876725	0.050750	0.352232	-0.722009	0.041234	0.295415	-0.670437	0.025373	0.224401	-0.618865	0.317177	1.638777	-4.589252	0.000000	0.000000	7.877096	-9.076288	15.130145	78.527256	-100.154432	81.720808	5.989115	44.396409	-11.051022	7.213379	-83.206623	-79.251653	-20.501611	6.265316	51.265680	-9.181110	0.884939
2.166667	0.222648	-1.422024	103.508221	0.217875	0.833804	0.620092	-7.021935	0.925093	9.211464	1.712075	0.029881	22.989526	-15.556034	0.000000	-5.660288	2.833297	12.010425	0.347825	0.006071	29.018574	-9.882006	0.000000	0.039195	0.145863	-0.852492	0.072789	0.193998	-0.905773	0.064393	0.354652	-0.905773	0.044796	0.354652	-0.745931	0.036396	0.297444	-0.692650	0.022396	0.225942	-0.639369	0.279965	1.650032	-4.741305	0.000000	0.000000	7.977104	-9.115103	14.797891	78.599716	-100.147195	81.163847	6.063425	44.355913	-11.202157	7.116868	-83.428665	-79.227924	-21.190406	6.311972	49.676196	-9.105803	0.341178
2.183333	0.225277	-1.385304	103.685634	0.217650	0.833749	0.619797	-7.098738	0.973050	8.816452	1.688961	0.029478	23.134734	-15.393484	0.000000	-5.703214	2.799864	12.259440	0.345341	0.006027	28.942458	-10.083054	0.000000	0.035589	0.144316	-0.881240	0.066093	0.191940	-0.936317	0.058470	0.350889	-0.936317	0.040675	0.350889	-0.771085	0.033048	0.294288	-0.716007	0.020336	0.223545	-0.660930	0.254212	1.632527	-4.901190	0.000000	0.000000	8.048102	-9.151404	14.490062	78.587092	-100.153415	80.892582	6.174515	43.923466	-11.390731	7.045360	-83.728887	-79.206785	-22.022554	6.368196	48.204493	-9.068721	-0.215837
2.200000	0.206287	-1.358810	103.838049	0.217500	0.833668	0.619536	-7.179481	0.995250	8.466610	1.638461	0.028597	23.272880	-15.267944	0.000000	-5.738397	2.796813	12.458464	0.342317	0.005975	28.862815	-10.301888	0.000000	0.032095	0.140050	-0.905809	0.059604	0.186267	-0.962422	0.052729	0.340518	-0.962422	0.036682	0.340518	-0.792583	0.029804	0.285590	-0.735970	0.018339	0.216938	-0.679356	0.229254	1.584275	-5.037836	0.000000	0.000000	8.125413	-9.180569	14.205714	78.604551	-100.165086	80.834730	6.308847	43.022373	-11.611443	6.972454	-84.083586	-79.188799	-22.967944	6.425604	46.822051	-9.042420	-0.771219
2.216667	0.166611	-1.328587	103.984078	0.217387	0.833591	0.619333	-7.279121	0.997780	8.109639	1.564440	0.027305	23.411751	-15.129678	0.000000	-5.780015	2.816353	12.602181	0.338328	0.005905	28.788020	-10.477687	0.000000	0.025777	0.133731	-0.929962	0.047870	0.177863	-0.988085	0.042348	0.325155	-0.988085	0.029460	0.325155	-0.813717	0.023936	0.272705	-0.755594	0.014729	0.207150	-0.697472	0.184119	1.512797	-5.172171	0.000000	0.000000	8.230813	-9.214537	13.996494	78.631663	-100.174898	80.979286	6.445422	41.679536	-11.835310	6.911350	-84.492390	-79.160305	-24.022143	6.495183	45.561713	-9.026331	-1.331883
2.233333	0.106690	-1.306725	104.106807	0.217334	0.833501	0.619215	-7.381720	0.973417	7.822281	1.466334	0.025592	23.512658	-15.041446	0.000000	-5.813759	2.862546	12.682629	0.334069	0.005831	28.708506	-10.605633	0.000000	0.017777	0.124830	-0.952640	0.033014	0.166024	-1.012180	0.029206	0.303512	-1.012180	0.020317	0.303512	-0.833560	0.016508	0.254554	-0.774020	0.010158	0.193362	-0.714480	0.126979	1.412105	-5.298297	0.000000	0.000000	8.390194	-9.237673	13.817957	78.683583	-100.171479	81.342023	6.582054	39.993178	-12.062540	6.862182	-84.937883	-79.106353	-25.132671	6.560155	44.492923	-9.022513	-1.881917
2.250000	0.039444	-1.319780	104.170746	0.217379	0.833360	0.619169	-7.431006	0.925590	7.585629	1.392193	0.024298	23.622430	-14.926147	0.000000	-5.805183	2.933459	12.686667	0.342487	0.005978	28.625982	-10.709803	0.000000	0.013516	0.114716	-0.963614	0.025100	0.152572	-1.023840	0.022205	0.278921	-1.023840	0.015447	0.278921	-0.843162	0.012551	0.233929	-0.782936	0.007723	0.177695	-0.722710	0.096543	1.297692	-5.359331	0.000000	0.000000	8.568496	-9.270632	13.639418	78.740183	-100.197949	81.933692	6.746404	37.889190	-12.307541	6.820295	-85.389341	-79.056216	-26.321660	6.638498	43.596621	-9.014421	-2.286392
2.266667	-0.037186	-1.344070	104.181786	0.217497	0.833204	0.619220	-7.473401	0.855613	7.507211	1.293968	0.022584	23.660377	-14.940355	0.000000	-5.788723	3.024910	12.745588	0.342058	0.005970	28.508112	-10.935104	0.000000	0.008270	0.103966	-0.967963	0.015358	0.138274	-1.028461	0.013587	0.252782	-1.028461	0.009452	0.252782	-0.846968	0.007680	0.212007	-0.786470	0.004725	0.161043	-0.725972	0.059072	1.176079	-5.383521	0.000000	0.000000	8.785028	-9.332944	13.467507	78.934554	-100.182429	82.004944	6.870313	36.424502	-12.546003	6.806571	-85.873782	-79.009295	-27.102291	6.709599	42.459960	-8.979841	-2.524985
2.283333	-0.115334	-1.372429	104.137144	0.217656	0.833062	0.619371	-7.501976	0.768930	7.399426	1.199238	0.020931	23.717448	-14.801026	0.000000	-5.766567	3.127167	12.643395	0.341907	0.005967	28.432438	-10.968049	0.000000	0.001329	0.094256	-0.965096	0.002467	0.125360	-1.025415	0.002183	0.229173	-1.025415	0.001519	0.229173	-0.844459	0.001234	0.192206	-0.784141	0.000759	0.146002	-0.723822	0.009491	1.066238	-5.367576	0.000000	0.000000	9.002946	-9.422671	13.290787	79.154227	-100.142447	81.775785	6.962080	35.336216	-12.762283	6.827912	-86.219317	-78.941261	-28.059681	6.790387	41.885962	-8.959996	-2.574983
2.300000	-0.198542	-1.415639	104.033243	0.217899	0.832921	0.619602	-7.503721	0.662941	7.380083	1.111628	0.019402	23.758408	-14.679782	0.000000	-5.729268	3.244453	12.488598	0.341982	0.005969	28.371112	-10.958414	0.000000	-0.005517	0.083899	-0.953700	-0.010246	0.111586	-1.013306	-0.009065	0.203992	-1.013306	-0.006306	0.203992	-0.834487	-0.005123	0.171087	-0.774881	-0.003153	0.129960	-0.715275	-0.039410	0.949083	-5.304192	0.000000	0.000000	9.202950	-9.504566	13.073879	79.413836	-100.100852	81.691039	7.035826	34.157695	-12.951542	6.845528	-86.650283	-78.891068	-28.665945	6.875650	41.167116	-8.919168	-2.423080
2.316667	-0.282198	-1.467690	103.893654	0.218183	0.832796	0.619893	-7.497166	0.547519	7.512875	1.008713	0.017605	23.743281	-14.707483	0.000000	-5.688785	3.366851	12.375119	0.328692	0.005737	28.305564	-11.000530	0.000000	-0.012491	0.073468	-0.935672	-0.023198	0.097712	-0.994152	-0.020522	0.178629	-0.994152	-0.014276	0.178629	-0.818713	-0.011599	0.149815	-0.760234	-0.007138	0.113801	-0.701754	-0.089225	0.831079	-5.203928	0.000000	0.000000	9.365732	-9.562497	12.807110	79.711793	-100.077479	81.776309	7.092394	32.993006	-13.081681	6.852273	-87.107043	-78.871926	-28.908884	6.947396	40.362917	-8.866918	-2.135713
2.333333	-0.363107	-1.538752	103.695729	0.218554	0.832704	0.620296	-7.428610	0.419771	7.621468	0.967069	0.016879	23.784504	-14.588014	0.000000	-5.613900	3.496101	12.088267	0.338918	0.005915	28.304833	-10.852292	0.000000	-0.018373	0.063172	-0.907176	-0.034120	0.084018	-0.963874	-0.030185	0.153596	-0.963874	-0.020998	0.153596	-0.793779	-0.017061	0.128820	-0.737080	-0.010498	0.097853	-0.680382	-0.131235	0.714610	-5.045438	0.000000	0.000000	9.461756	-9.589242	12.519149	80.067738	-100.066590	81.976126	7.153729	31.885623	-13.191778	6.846006	-87.624854	-78.890001	-28.825299	7.035352	39.588402	-8.821039	-1.648429
2.350000	-0.433215	-1.611127	103.471161	0.218923	0.832648	0.620742	-7.338821	0.297341	7.803214	0.950189	0.016584	23.820947	-14.531713	0.000000	-5.536542	3.617420	11.836869	0.345903	0.006037	28.301562	-10.773635	0.000000	-0.024589	0.054542	-0.871432	-0.045665	0.072540	-0.925897	-0.040398	0.132613	-0.925897	-0.028103	0.132613	-0.762503	-0.022834	0.111221	-0.708039	-0.014050	0.084485	-0.653574	-0.175639	0.616986	-4.846645	0.000000	0.000000	9.502265	-9.563755	12.207122	80.375857	-100.081965	82.247492	7.200263	30.945939	-13.240317	6.835484	-88.051745	-78.917593	-28.576872	7.111422	38.707591	-8.779907	-1.159775
2.366667	-0.488922	-1.681691	103.234548	0.219279	0.832627	0.621215	-7.232538	0.187107	8.031867	0.955760	0.016681	23.859653	-14.519559	0.000000	-5.457364	3.723499	11.630866	0.351469	0.006134	28.304060	-10.762350	0.000000	-0.030800	0.047592	-0.831890	-0.057198	0.063298	-0.883883	-0.050601	0.115716	-0.883883	-0.035201	0.115716	-0.727903	-0.028600	0.097050	-0.675910	-0.017599	0.073721	-0.623917	-0.219998	0.538375	-4.626720	0.000000	0.000000	9.485474	-9.484172	11.882398	80.669048	-100.103279	82.499507	7.232329	30.145251	-13.247190	6.820055	-88.471672	-78.946246	-28.238971	7.195156	37.766280	-8.718254	-0.658874
2.383333	-0.529666	-1.747417	102.995134	0.219625	0.832643	0.621651	-7.130686	0.094507	8.400686	0.953754	0.016646	23.848860	-14.702764	0.000000	-5.387264	3.810149	11.534029	0.343580	0.005997	28.292228	-10.897349	0.000000	-0.036110	0.041973	-0.788888	-0.067060	0.055824	-0.838194	-0.059325	0.102054	-0.838194	-0.041270	0.102054	-0.690277	-0.033532	0.085592	-0.640972	-0.020633	0.065016	-0.591666	-0.257932	0.474809	-4.387559	0.000000	0.000000	9.417185	-9.363981	11.554612	80.918886	-100.126611	82.803934	7.222906	29.573572	-13.191110	6.803571	-88.809670	-78.995466	-27.655409	7.240804	36.896290	-8.643629	-0.114593
2.400000	-0.545915	-1.805156	102.795763	0.219876	0.832707	0.622088	-7.017047	0.032132	8.686075	0.987667	0.017238	23.875521	-14.818563	0.000000	-5.308504	3.864533	11.437438	0.351692	0.006138	28.328700	-10.958806	0.000000	-0.039788	0.038956	-0.751300	-0.073890	0.051811	-0.798256	-0.065367	0.094717	-0.798256	-0.045473	0.094717	-0.657387	-0.036947	0.079438	-0.610431	-0.022735	0.060342	-0.563475	-0.284199	0.440673	-4.178503	0.000000	0.000000	9.232595	-9.193409	11.204508	81.129724	-100.144019	82.963961	7.212295	29.217688	-13.148562	6.788065	-89.012798	-79.034206	-27.085094	7.273333	36.035185	-8.550322	0.369648
2.416667	-0.538507	-1.865169	102.581647	0.220109	0.832774	0.622437	-6.871717	-0.008811	8.907560	1.074701	0.018757	23.968184	-14.822758	0.000000	-5.225873	3.894884	11.219338	0.356784	0.006227	28.425833	-10.855116	0.000000	-0.039087	0.038743	-0.708763	-0.072589	0.051528	-0.753060	-0.064216	0.094199	-0.753060	-0.044673	0.094199	-0.620167	-0.036296	0.079004	-0.575870	-0.022334	0.060012	-0.531572	-0.279195	0.438263	-3.941925	0.000000	0.000000	8.991523	-9.029935	10.825902	81.374146	-100.146041	82.573779	7.165494	29.786943	-13.085631	6.784098	-89.148705	-79.094953	-26.269596	7.287794	35.263260	-8.469738	0.848996
